<svg version="1.1" xmlns="http://www.w3.org/2000/svg" xmlns:xlink="http://www.w3.org/1999/xlink" x="0px" y="0px" width="276.3px"
     height="327px" viewBox="0 0 276.3 327" style="overflow:visible;enable-background:new 0 0 276.3 327;" xml:space="preserve">
    <path  fill="#212C35" opacity="0.10" d="M21.3,0l27.3,20.4C28,49.6,29.2,89.2,51,117.2c27,34.3,75.3,40.2,109.1,13.2l1-0.8l21.3,27.3
	c-39.3,32.8-95,34-136.1,3.7C-4,123.3-14.9,51.4,21.3,0z M267.7,126.3l8.6,32.6c-34.5,9.1-59,39.9-59,76.2
	c-0.1,6.3,0.7,12.6,2.2,18.6l0.2,0.7l-33.1,8.5c-2.5-9.3-3.8-18.8-3.8-28.4C182.8,183.7,217.9,138.9,267.7,126.3z M64.7,207.5
	c61.4,0,111.4,49.4,111.4,110c0,3.3-0.5,6.2-0.6,8.9v0.5l-33.7-2.9v-6.6c0-42.3-35-76.6-77.7-76.6c-7.6,0-15.1,1.1-22.3,3.3
	l-0.7,0.2l-9.6-32C42.4,209.4,53.2,207.5,64.7,207.5z"/>
</svg>
